<svg width="129" height="34" viewBox="0 0 129 34" fill="none" xmlns="http://www.w3.org/2000/svg">
<path d="M11.2499 33.308V25.46H17.2259V33.308H11.2499ZM14.2379 26.468C12.2219 26.468 10.3979 26.132 8.76589 25.46C7.13389 24.788 5.72989 23.852 4.55389 22.652C3.37789 21.452 2.46589 20.06 1.81789 18.476C1.19389 16.892 0.881891 15.188 0.881891 13.364C0.881891 11.54 1.19389 9.836 1.81789 8.252C2.46589 6.668 3.36589 5.288 4.51789 4.112C5.69389 2.912 7.09789 1.988 8.72989 1.34C10.3859 0.667998 12.2219 0.331998 14.2379 0.331998C16.2299 0.331998 18.0419 0.667998 19.6739 1.34C21.3299 1.988 22.7339 2.912 23.8859 4.112C25.0619 5.288 25.9739 6.68 26.6219 8.288C27.2699 9.872 27.5939 11.564 27.5939 13.364C27.5939 15.188 27.2699 16.892 26.6219 18.476C25.9739 20.06 25.0619 21.452 23.8859 22.652C22.7339 23.852 21.3299 24.788 19.6739 25.46C18.0419 26.132 16.2299 26.468 14.2379 26.468ZM14.2379 21.32C15.2939 21.32 16.2659 21.128 17.1539 20.744C18.0659 20.336 18.8459 19.772 19.4939 19.052C20.1419 18.332 20.6459 17.492 21.0059 16.532C21.3659 15.548 21.5459 14.492 21.5459 13.364C21.5459 12.236 21.3659 11.192 21.0059 10.232C20.6459 9.272 20.1419 8.432 19.4939 7.712C18.8459 6.992 18.0659 6.44 17.1539 6.056C16.2659 5.648 15.2939 5.444 14.2379 5.444C13.1579 5.444 12.1739 5.648 11.2859 6.056C10.3979 6.44 9.61789 6.992 8.94589 7.712C8.29789 8.432 7.79389 9.284 7.43389 10.268C7.09789 11.228 6.92989 12.26 6.92989 13.364C6.92989 14.492 7.09789 15.548 7.43389 16.532C7.79389 17.492 8.29789 18.332 8.94589 19.052C9.61789 19.772 10.3979 20.336 11.2859 20.744C12.1739 21.128 13.1579 21.32 14.2379 21.32ZM31.7637 26V0.799998H43.1037C44.7117 0.799998 46.1637 1.148 47.4597 1.844C48.7797 2.54 49.8117 3.5 50.5557 4.724C51.2997 5.924 51.6717 7.292 51.6717 8.828C51.6717 10.412 51.2997 11.84 50.5557 13.112C49.8117 14.36 48.7917 15.344 47.4957 16.064C46.1997 16.784 44.7357 17.144 43.1037 17.144H37.5957V26H31.7637ZM45.7317 26L39.3237 14.624L45.5877 13.724L52.7157 26H45.7317ZM37.5957 12.464H42.5637C43.1877 12.464 43.7277 12.332 44.1837 12.068C44.6637 11.78 45.0237 11.384 45.2637 10.88C45.5277 10.376 45.6597 9.8 45.6597 9.152C45.6597 8.504 45.5157 7.94 45.2277 7.46C44.9397 6.956 44.5197 6.572 43.9677 6.308C43.4397 6.044 42.7917 5.912 42.0237 5.912H37.5957V12.464Z" fill="#10B45C"/>
<path d="M57.041 26V0.799998H67.589C69.437 0.799998 71.129 1.112 72.665 1.736C74.201 2.336 75.521 3.2 76.625 4.328C77.753 5.456 78.617 6.788 79.217 8.324C79.817 9.86 80.117 11.552 80.117 13.4C80.117 15.248 79.817 16.952 79.217 18.512C78.617 20.048 77.753 21.38 76.625 22.508C75.521 23.612 74.201 24.476 72.665 25.1C71.129 25.7 69.437 26 67.589 26H57.041ZM63.161 21.824L62.333 20.6H67.409C68.417 20.6 69.317 20.432 70.109 20.096C70.901 19.736 71.573 19.244 72.125 18.62C72.701 17.996 73.145 17.24 73.457 16.352C73.769 15.464 73.925 14.48 73.925 13.4C73.925 12.32 73.769 11.336 73.457 10.448C73.145 9.56 72.701 8.804 72.125 8.18C71.573 7.556 70.901 7.076 70.109 6.74C69.317 6.38 68.417 6.2 67.409 6.2H62.225L63.161 5.048V21.824ZM84.8496 26V0.799998H102.418V6.02H90.7896V20.78H102.778V26H84.8496ZM87.7296 15.668V10.7H100.798V15.668H87.7296ZM108.053 26V0.799998H119.393C121.001 0.799998 122.453 1.148 123.749 1.844C125.069 2.54 126.101 3.5 126.845 4.724C127.589 5.924 127.961 7.292 127.961 8.828C127.961 10.412 127.589 11.84 126.845 13.112C126.101 14.36 125.081 15.344 123.785 16.064C122.489 16.784 121.025 17.144 119.393 17.144H113.885V26H108.053ZM122.021 26L115.613 14.624L121.877 13.724L129.005 26H122.021ZM113.885 12.464H118.853C119.477 12.464 120.017 12.332 120.473 12.068C120.953 11.78 121.313 11.384 121.553 10.88C121.817 10.376 121.949 9.8 121.949 9.152C121.949 8.504 121.805 7.94 121.517 7.46C121.229 6.956 120.809 6.572 120.257 6.308C119.729 6.044 119.081 5.912 118.313 5.912H113.885V12.464Z" fill="#10B45C"/>
</svg>
